<svg xmlns="http://www.w3.org/2000/svg" width="19" height="20" viewBox="0 0 19 20"><g><g><g><path fill="#fff" d="M14.892 6.064a1.648 1.648 0 0 1-1.647-1.646c0-.908.74-1.647 1.647-1.647.908 0 1.647.739 1.647 1.647 0 .907-.74 1.646-1.647 1.646zm-5.488 8.782a4.945 4.945 0 0 1-4.94-4.94 4.945 4.945 0 0 1 4.94-4.94 4.945 4.945 0 0 1 4.94 4.94 4.945 4.945 0 0 1-4.94 4.94zM15.99.576H2.744A2.747 2.747 0 0 0 0 3.32v13.245a2.747 2.747 0 0 0 2.744 2.745H15.99a2.747 2.747 0 0 0 2.744-2.745V3.32A2.747 2.747 0 0 0 15.99.576z"/></g><g><path fill="#fff" d="M14.892 3.869a.55.55 0 1 0 0 1.098.55.55 0 0 0 0-1.098z"/></g><g><path fill="#fff" d="M9.404 6.064a3.847 3.847 0 0 0-3.842 3.842 3.847 3.847 0 0 0 3.842 3.842 3.847 3.847 0 0 0 3.841-3.842 3.847 3.847 0 0 0-3.841-3.842z"/></g></g></g></svg>