<svg xmlns="http://www.w3.org/2000/svg" width="16" height="12" viewBox="0 0 16 12"><g><g><g><g><g><path fill="#4c495d" d="M14.594-.066H1.406c-.216 0-.419.053-.602.14L7.969 7.24l1.606-1.544L15.196.075a1.39 1.39 0 0 0-.602-.141z"/></g></g></g><g><g><g><path fill="#4c495d" d="M15.86.738l-5.29 5.29 5.289 5.29a1.39 1.39 0 0 0 .141-.603V1.34a1.39 1.39 0 0 0-.14-.602z"/></g></g></g><g><g><g><path fill="#4c495d" d="M.14.737A1.39 1.39 0 0 0 0 1.34v9.375c0 .216.053.419.14.602l5.29-5.29z"/></g></g></g><g><g><g><path fill="#4c495d" d="M9.906 6.69L8.3 8.234a.467.467 0 0 1-.663 0L6.094 6.69l-5.29 5.29c.183.088.386.141.602.141h13.188c.216 0 .419-.053.602-.14z"/></g></g></g></g></g></svg>